<?xml version="1.0" encoding="UTF-8"?><svg id="Layer_1" xmlns="http://www.w3.org/2000/svg" viewBox="0 0 1469.48 484.42"><defs><style>.cls-1{fill:#abc502;}.cls-2{fill:#666;}</style></defs><g><polygon class="cls-1" points="451.17 0 332.76 0 240.4 92.36 211 62.38 92.59 62.38 240.4 210.76 451.17 0"/><polygon class="cls-2" points="422.28 92.36 273.66 240.17 484.42 450.93 484.42 332.52 392.06 240.17 422.28 210.76 422.28 92.36"/><polygon class="cls-2" points="62.38 391.83 211 244.49 0 33.49 0 151.9 92.59 244.49 62.38 273.42 62.38 391.83"/><polygon class="cls-2" points="33.49 484.42 151.9 484.42 244.49 391.83 273.66 422.04 392.06 422.04 244.49 273.42 33.49 484.42"/></g><g><path class="cls-2" d="M694.6,301.4l-39.29-54.85-31.12,54.85h-83.64l72.74-113.2-75.86-105.03h85.58l39.29,54.85,31.51-54.85h83.64l-74.3,111.26,77.02,106.98h-85.58Z"/><path class="cls-2" d="M875.09,237.99h92.97v63.41h-177v-60.3l86.75-94.53h-85.97v-63.41h173.11v60.3l-89.86,94.53Z"/><path class="cls-2" d="M1076.2,83.17v218.23h-76.25V83.17h76.25Z"/><path class="cls-2" d="M1160.03,294.2c-15.43-6.61-27.62-15.69-36.57-27.23-8.95-11.54-13.94-24.57-14.98-39.1h73.91c1.03,7,4.28,12.45,9.72,16.34,5.45,3.89,12.19,5.83,20.23,5.83,6.22,0,11.15-1.29,14.78-3.89,3.63-2.59,5.45-5.96,5.45-10.11,0-5.45-2.98-9.46-8.95-12.06-5.97-2.59-15.82-5.45-29.56-8.56-15.56-3.11-28.53-6.61-38.9-10.5-10.38-3.89-19.39-10.24-27.04-19.06-7.65-8.81-11.48-20.75-11.48-35.79,0-12.96,3.5-24.7,10.5-35.2,7-10.5,17.31-18.87,30.93-25.09,13.61-6.22,30.01-9.34,49.21-9.34,28.52,0,50.96,7,67.3,21.01,16.34,14,25.8,32.42,28.4,55.24h-68.85c-1.3-7-4.35-12.38-9.14-16.14-4.8-3.76-11.22-5.64-19.26-5.64-6.22,0-10.96,1.17-14.2,3.5-3.25,2.33-4.86,5.58-4.86,9.73,0,5.19,2.98,9.14,8.95,11.86,5.96,2.72,15.56,5.51,28.79,8.36,15.82,3.37,28.98,7.14,39.48,11.28,10.5,4.15,19.71,10.83,27.62,20.03,7.91,9.21,11.87,21.72,11.87,37.54,0,12.71-3.7,24.12-11.09,34.23-7.39,10.11-17.89,18.09-31.51,23.92-13.62,5.84-29.63,8.75-48.04,8.75-19.71,0-37.28-3.31-52.71-9.92Z"/><path class="cls-2" d="M1469.48,236.43v64.96h-33.07c-55.76,0-83.64-27.62-83.64-82.86v-71.97h-26.84v-63.41h26.84V30.26h76.63v52.9h39.68v63.41h-39.68v73.13c0,5.97,1.36,10.25,4.08,12.84,2.72,2.59,7.32,3.89,13.81,3.89h22.17Z"/></g><g><path class="cls-1" d="M547.52,383.88c-3.11-2.3-4.78-5.6-5.02-9.88h12.33c.12,1.46,.55,2.52,1.3,3.19,.75,.67,1.71,1,2.89,1,1.06,0,1.94-.26,2.63-.8,.69-.53,1.03-1.27,1.03-2.21,0-1.22-.57-2.16-1.71-2.83-1.14-.67-2.99-1.42-5.55-2.24-2.71-.9-4.91-1.78-6.58-2.63-1.67-.85-3.13-2.08-4.37-3.72-1.24-1.63-1.86-3.77-1.86-6.4s.67-4.97,2.01-6.87c1.34-1.91,3.19-3.35,5.55-4.34,2.36-.98,5.03-1.48,8.02-1.48,4.84,0,8.7,1.13,11.59,3.39,2.89,2.26,4.43,5.44,4.63,9.53h-12.57c-.04-1.26-.42-2.2-1.15-2.83-.73-.63-1.66-.94-2.8-.94-.87,0-1.57,.26-2.12,.77-.55,.51-.83,1.24-.83,2.18,0,.79,.3,1.47,.91,2.04,.61,.57,1.37,1.06,2.27,1.47,.9,.41,2.24,.94,4.01,1.56,2.63,.91,4.81,1.8,6.52,2.68,1.71,.89,3.19,2.12,4.43,3.72,1.24,1.59,1.86,3.61,1.86,6.05s-.62,4.7-1.86,6.67c-1.24,1.97-3.03,3.52-5.37,4.66-2.34,1.14-5.1,1.71-8.29,1.71-4.84,0-8.81-1.15-11.92-3.45Z"/><path class="cls-1" d="M591.65,345.32v24.13c0,2.24,.52,3.97,1.56,5.19,1.04,1.22,2.63,1.83,4.75,1.83s3.73-.62,4.81-1.86c1.08-1.24,1.62-2.96,1.62-5.16v-24.13h11.56v24.13c0,3.82-.81,7.07-2.42,9.76-1.61,2.69-3.81,4.72-6.58,6.08-2.77,1.36-5.85,2.04-9.23,2.04s-6.4-.68-9.06-2.04c-2.65-1.36-4.74-3.37-6.25-6.05-1.51-2.67-2.27-5.94-2.27-9.79v-24.13h11.5Z"/><path class="cls-1" d="M623.48,355.09c1.71-3.21,4.14-5.7,7.29-7.49,3.15-1.79,6.76-2.68,10.86-2.68,5.19,0,9.56,1.39,13.1,4.16s5.82,6.54,6.84,11.3h-12.45c-.75-1.57-1.78-2.77-3.1-3.6-1.32-.83-2.84-1.24-4.57-1.24-2.68,0-4.81,.95-6.4,2.86-1.59,1.91-2.39,4.45-2.39,7.64s.8,5.79,2.39,7.7c1.59,1.91,3.73,2.86,6.4,2.86,1.73,0,3.25-.41,4.57-1.24,1.32-.83,2.35-2.03,3.1-3.6h12.45c-1.02,4.76-3.3,8.53-6.84,11.3-3.54,2.77-7.91,4.16-13.1,4.16-4.09,0-7.71-.89-10.86-2.68-3.15-1.79-5.58-4.29-7.29-7.49-1.71-3.21-2.57-6.87-2.57-11s.86-7.74,2.57-10.94Z"/><path class="cls-1" d="M668.2,355.09c1.71-3.21,4.14-5.7,7.29-7.49,3.15-1.79,6.76-2.68,10.86-2.68,5.19,0,9.56,1.39,13.1,4.16s5.82,6.54,6.84,11.3h-12.45c-.75-1.57-1.78-2.77-3.1-3.6-1.32-.83-2.84-1.24-4.57-1.24-2.68,0-4.81,.95-6.4,2.86-1.59,1.91-2.39,4.45-2.39,7.64s.8,5.79,2.39,7.7c1.59,1.91,3.73,2.86,6.4,2.86,1.73,0,3.25-.41,4.57-1.24,1.32-.83,2.35-2.03,3.1-3.6h12.45c-1.02,4.76-3.3,8.53-6.84,11.3-3.54,2.77-7.91,4.16-13.1,4.16-4.09,0-7.71-.89-10.86-2.68-3.15-1.79-5.58-4.29-7.29-7.49-1.71-3.21-2.57-6.87-2.57-11s.86-7.74,2.57-10.94Z"/><path class="cls-1" d="M723.34,354.59v6.79h13.27v8.79h-13.27v7.49h15.04v9.26h-26.61v-41.6h26.61v9.26h-15.04Z"/><path class="cls-1" d="M747.88,383.88c-3.11-2.3-4.78-5.6-5.02-9.88h12.33c.12,1.46,.55,2.52,1.3,3.19,.75,.67,1.71,1,2.89,1,1.06,0,1.94-.26,2.63-.8,.69-.53,1.03-1.27,1.03-2.21,0-1.22-.57-2.16-1.71-2.83-1.14-.67-2.99-1.42-5.55-2.24-2.71-.9-4.91-1.78-6.58-2.63-1.67-.85-3.13-2.08-4.37-3.72-1.24-1.63-1.86-3.77-1.86-6.4s.67-4.97,2.01-6.87c1.34-1.91,3.19-3.35,5.55-4.34,2.36-.98,5.03-1.48,8.02-1.48,4.84,0,8.7,1.13,11.59,3.39,2.89,2.26,4.43,5.44,4.63,9.53h-12.57c-.04-1.26-.42-2.2-1.15-2.83-.73-.63-1.66-.94-2.8-.94-.87,0-1.57,.26-2.12,.77-.55,.51-.83,1.24-.83,2.18,0,.79,.3,1.47,.91,2.04,.61,.57,1.37,1.06,2.27,1.47,.9,.41,2.24,.94,4.01,1.56,2.63,.91,4.81,1.8,6.52,2.68,1.71,.89,3.19,2.12,4.43,3.72,1.24,1.59,1.86,3.61,1.86,6.05s-.62,4.7-1.86,6.67c-1.24,1.97-3.03,3.52-5.37,4.66-2.34,1.14-5.1,1.71-8.29,1.71-4.84,0-8.81-1.15-11.92-3.45Z"/><path class="cls-1" d="M784.46,383.88c-3.11-2.3-4.78-5.6-5.01-9.88h12.33c.12,1.46,.55,2.52,1.3,3.19,.75,.67,1.71,1,2.89,1,1.06,0,1.94-.26,2.63-.8,.69-.53,1.03-1.27,1.03-2.21,0-1.22-.57-2.16-1.71-2.83-1.14-.67-2.99-1.42-5.55-2.24-2.71-.9-4.91-1.78-6.58-2.63-1.67-.85-3.13-2.08-4.37-3.72-1.24-1.63-1.86-3.77-1.86-6.4s.67-4.97,2.01-6.87c1.34-1.91,3.19-3.35,5.55-4.34,2.36-.98,5.03-1.48,8.02-1.48,4.84,0,8.7,1.13,11.59,3.39,2.89,2.26,4.43,5.44,4.63,9.53h-12.57c-.04-1.26-.42-2.2-1.15-2.83-.73-.63-1.66-.94-2.8-.94-.87,0-1.57,.26-2.12,.77-.55,.51-.83,1.24-.83,2.18,0,.79,.3,1.47,.91,2.04,.61,.57,1.37,1.06,2.27,1.47,.9,.41,2.24,.94,4.01,1.56,2.63,.91,4.81,1.8,6.52,2.68,1.71,.89,3.19,2.12,4.43,3.72,1.24,1.59,1.86,3.61,1.86,6.05s-.62,4.7-1.86,6.67c-1.24,1.97-3.03,3.52-5.37,4.66-2.34,1.14-5.1,1.71-8.29,1.71-4.84,0-8.81-1.15-11.92-3.45Z"/><path class="cls-2" d="M859.86,345.32v9.2h-11.09v32.39h-11.56v-32.39h-10.97v-9.2h33.63Z"/><path class="cls-2" d="M901.4,345.32v41.6h-11.56v-16.7h-14.1v16.7h-11.56v-41.6h11.56v15.64h14.1v-15.64h11.56Z"/><path class="cls-2" d="M929.07,386.92l-8.26-15.34h-1.24v15.34h-11.56v-41.6h18.23c3.34,0,6.17,.58,8.5,1.74,2.32,1.16,4.07,2.75,5.25,4.78,1.18,2.03,1.77,4.3,1.77,6.81,0,2.83-.78,5.32-2.33,7.46-1.55,2.14-3.83,3.67-6.81,4.57l9.38,16.23h-12.92Zm-9.5-23.25h5.72c1.57,0,2.75-.37,3.54-1.12,.79-.75,1.18-1.83,1.18-3.24,0-1.34-.4-2.39-1.21-3.16-.81-.77-1.98-1.15-3.51-1.15h-5.72v8.67Z"/><path class="cls-2" d="M956.21,384.59c-3.27-1.83-5.85-4.37-7.76-7.61-1.91-3.25-2.86-6.91-2.86-11s.95-7.76,2.86-11c1.91-3.24,4.49-5.77,7.76-7.58,3.26-1.81,6.84-2.71,10.74-2.71s7.52,.91,10.77,2.71c3.24,1.81,5.81,4.34,7.7,7.58,1.89,3.25,2.83,6.91,2.83,11s-.94,7.76-2.83,11-4.46,5.78-7.73,7.61c-3.26,1.83-6.84,2.74-10.74,2.74s-7.47-.92-10.74-2.74Zm17.73-10.89c1.71-1.93,2.57-4.5,2.57-7.73s-.86-5.91-2.57-7.82c-1.71-1.91-4.04-2.86-6.99-2.86s-5.33,.95-7.02,2.86c-1.69,1.91-2.54,4.51-2.54,7.82s.85,5.85,2.54,7.76c1.69,1.91,4.03,2.86,7.02,2.86s5.28-.96,6.99-2.89Z"/><path class="cls-2" d="M1004.77,345.32v24.13c0,2.24,.52,3.97,1.56,5.19,1.04,1.22,2.62,1.83,4.75,1.83s3.73-.62,4.81-1.86c1.08-1.24,1.62-2.96,1.62-5.16v-24.13h11.56v24.13c0,3.82-.81,7.07-2.42,9.76-1.61,2.69-3.81,4.72-6.58,6.08-2.77,1.36-5.85,2.04-9.23,2.04s-6.4-.68-9.06-2.04c-2.66-1.36-4.74-3.37-6.25-6.05-1.51-2.67-2.27-5.94-2.27-9.79v-24.13h11.5Z"/><path class="cls-2" d="M1061.99,359.01c-.67-1.1-1.58-1.95-2.74-2.54-1.16-.59-2.53-.89-4.1-.89-2.91,0-5.2,.94-6.87,2.83-1.67,1.89-2.51,4.43-2.51,7.61,0,3.58,.89,6.3,2.68,8.17,1.79,1.87,4.4,2.8,7.82,2.8,4.05,0,6.94-1.83,8.67-5.49h-11.62v-8.32h21.59v11.21c-.91,2.2-2.23,4.27-3.98,6.19-1.75,1.93-3.96,3.51-6.64,4.75-2.68,1.24-5.72,1.86-9.15,1.86-4.17,0-7.86-.89-11.06-2.68-3.21-1.79-5.68-4.29-7.43-7.49-1.75-3.21-2.63-6.87-2.63-11s.88-7.74,2.63-10.94c1.75-3.21,4.22-5.7,7.4-7.49,3.19-1.79,6.86-2.68,11.03-2.68,5.23,0,9.56,1.26,12.98,3.78,3.42,2.52,5.55,5.96,6.37,10.32h-12.45Z"/><path class="cls-2" d="M1117.34,345.32v41.6h-11.56v-16.7h-14.1v16.7h-11.56v-41.6h11.56v15.64h14.1v-15.64h11.56Z"/><path class="cls-1" d="M1138.99,383.88c-3.11-2.3-4.78-5.6-5.01-9.88h12.33c.12,1.46,.55,2.52,1.3,3.19,.75,.67,1.71,1,2.89,1,1.06,0,1.94-.26,2.63-.8,.69-.53,1.03-1.27,1.03-2.21,0-1.22-.57-2.16-1.71-2.83-1.14-.67-2.99-1.42-5.55-2.24-2.71-.9-4.91-1.78-6.58-2.63-1.67-.85-3.13-2.08-4.37-3.72-1.24-1.63-1.86-3.77-1.86-6.4s.67-4.97,2.01-6.87c1.34-1.91,3.19-3.35,5.55-4.34,2.36-.98,5.03-1.48,8.02-1.48,4.84,0,8.7,1.13,11.59,3.39,2.89,2.26,4.43,5.44,4.63,9.53h-12.57c-.04-1.26-.42-2.2-1.15-2.83-.73-.63-1.66-.94-2.8-.94-.87,0-1.57,.26-2.12,.77-.55,.51-.83,1.24-.83,2.18,0,.79,.3,1.47,.92,2.04,.61,.57,1.37,1.06,2.27,1.47,.9,.41,2.24,.94,4.01,1.56,2.63,.91,4.81,1.8,6.52,2.68,1.71,.89,3.19,2.12,4.42,3.72,1.24,1.59,1.86,3.61,1.86,6.05s-.62,4.7-1.86,6.67c-1.24,1.97-3.03,3.52-5.37,4.66-2.34,1.14-5.1,1.71-8.29,1.71-4.84,0-8.81-1.15-11.92-3.45Z"/><path class="cls-1" d="M1183.36,345.32v41.6h-11.56v-41.6h11.56Z"/><path class="cls-1" d="M1238.52,345.32v41.6h-11.56v-22.95l-7.85,22.95h-9.68l-7.91-23.13v23.13h-11.56v-41.6h13.98l10.44,27.02,10.21-27.02h13.92Z"/><path class="cls-1" d="M1276.25,366.06c-1.16,2.06-2.91,3.72-5.25,4.96-2.34,1.24-5.2,1.86-8.58,1.86h-5.72v14.04h-11.56v-41.6h17.29c3.34,0,6.18,.59,8.53,1.77,2.34,1.18,4.1,2.81,5.28,4.9,1.18,2.09,1.77,4.48,1.77,7.2,0,2.52-.58,4.81-1.74,6.87Zm-10.06-6.87c0-3.03-1.63-4.54-4.9-4.54h-4.6v9.03h4.6c3.26,0,4.9-1.49,4.9-4.48Z"/><path class="cls-1" d="M1294.22,378.07h12.92v8.85h-24.49v-41.6h11.56v32.75Z"/><path class="cls-1" d="M1323.19,345.32v41.6h-11.56v-41.6h11.56Z"/><path class="cls-1" d="M1330.94,355.09c1.71-3.21,4.14-5.7,7.29-7.49,3.15-1.79,6.76-2.68,10.86-2.68,5.19,0,9.56,1.39,13.1,4.16s5.82,6.54,6.84,11.3h-12.45c-.75-1.57-1.78-2.77-3.1-3.6-1.32-.83-2.84-1.24-4.57-1.24-2.67,0-4.81,.95-6.4,2.86-1.59,1.91-2.39,4.45-2.39,7.64s.8,5.79,2.39,7.7c1.59,1.91,3.73,2.86,6.4,2.86,1.73,0,3.25-.41,4.57-1.24,1.32-.83,2.35-2.03,3.1-3.6h12.45c-1.02,4.76-3.3,8.53-6.84,11.3-3.54,2.77-7.91,4.16-13.1,4.16-4.09,0-7.71-.89-10.86-2.68-3.15-1.79-5.58-4.29-7.29-7.49-1.71-3.21-2.57-6.87-2.57-11s.86-7.74,2.57-10.94Z"/><path class="cls-1" d="M1386.08,345.32v41.6h-11.56v-41.6h11.56Z"/><path class="cls-1" d="M1424.02,345.32v9.2h-11.09v32.39h-11.56v-32.39h-10.97v-9.2h33.63Z"/><path class="cls-1" d="M1466.14,345.32l-14.63,28.38v13.22h-11.62v-13.22l-14.63-28.38h13.22l7.32,16.05,7.32-16.05h13.04Z"/></g></svg>